<?xml version="1.0" encoding="UTF-8" standalone="no"?>
<svg
   xmlns:dc="http://purl.org/dc/elements/1.1/"
   xmlns:cc="http://creativecommons.org/ns#"
   xmlns:rdf="http://www.w3.org/1999/02/22-rdf-syntax-ns#"
   xmlns:svg="http://www.w3.org/2000/svg"
   xmlns="http://www.w3.org/2000/svg"
   version="1.1"
   id="svg8062"
   viewBox="0 0 267.90756 213.07845"
   height="60.135475mm"
   width="75.609467mm">
  <defs
     id="defs8064" />
  <metadata
     id="metadata8067">
    <rdf:RDF>
      <cc:Work
         rdf:about="">
        <dc:format>image/svg+xml</dc:format>
        <dc:type
           rdf:resource="http://purl.org/dc/dcmitype/StillImage" />
        <dc:title></dc:title>
      </cc:Work>
    </rdf:RDF>
  </metadata>
  <g
     transform="translate(-102.34183,-188.29172)"
     id="layer1">
    <path
       id="path8116"
       d="m 208.8466,401.37018 c -8.10497,-25.55193 -22.86289,-48.30314 -32.64817,-73.19954 -12.50878,-28.63333 -24.80369,-57.87504 -44.82069,-82.25005 -10.04995,-12.5391 -18.83906,-26.04377 -29.03591,-38.45696 14.40125,-0.54221 28.80507,-1.03659 43.20874,-1.51233 1.83202,19.09077 15.18244,34.2812 23.73439,50.76193 18.93531,31.48601 30.74599,66.52151 48.19316,98.79305 4.73875,9.97325 8.93856,-12.20506 14.06673,-17.09551 16.28399,-28.87019 35.11217,-56.38101 57.7741,-80.65159 18.94228,-22.0686 37.40996,-44.7013 52.75164,-69.46746 7.38824,1.80993 27.14203,-0.52796 28.17881,3.55278 -28.88439,25.04539 -52.12564,55.70817 -75.61901,85.65436 -19.34985,25.9889 -34.71546,55.41268 -41.23803,87.34532 -2.17663,11.82654 -7.16631,22.96847 -8.81884,34.88635 -11.90676,0.53978 -23.82213,1.22505 -35.72692,1.63965 z"
       style="fill:#000000" />
  </g>
</svg>
