<?xml version="1.0" encoding="UTF-8" standalone="no"?>
<svg
   xmlns:dc="http://purl.org/dc/elements/1.1/"
   xmlns:cc="http://creativecommons.org/ns#"
   xmlns:rdf="http://www.w3.org/1999/02/22-rdf-syntax-ns#"
   xmlns:svg="http://www.w3.org/2000/svg"
   xmlns="http://www.w3.org/2000/svg"
   version="1.1"
   id="svg7899"
   viewBox="0 0 136.66599 88.636804"
   height="25.015276mm"
   width="38.570179mm">
  <defs
     id="defs7901" />
  <metadata
     id="metadata7904">
    <rdf:RDF>
      <cc:Work
         rdf:about="">
        <dc:format>image/svg+xml</dc:format>
        <dc:type
           rdf:resource="http://purl.org/dc/dcmitype/StillImage" />
        <dc:title></dc:title>
      </cc:Work>
    </rdf:RDF>
  </metadata>
  <g
     transform="translate(-144.18682,-103.19519)"
     id="layer1">
    <path
       id="path7972"
       d="m 254.07945,191.80149 c -15.08921,-0.29316 -31.36318,-3.24078 -42.73147,-13.92481 -3.59218,-7.25368 -7.05697,3.5634 -12.14663,4.12522 -11.77284,5.34881 -25.01067,3.2051 -37.48537,2.82856 -7.58722,-0.26151 -15.70144,-4.81433 -17.13033,-12.79755 -1.25871,-7.88719 1.22393,-15.78174 2.91883,-23.42011 4.01968,-14.14458 13.83318,-25.52849 23.16661,-36.49328 4.26466,-4.66775 9.59387,-9.57556 16.42405,-8.92162 9.50374,1.14412 19.47848,-0.39813 28.51172,3.45524 13.7032,4.37512 25.68464,14.71675 30.53455,28.44967 0.9831,2.42728 4.71854,9.90622 -0.0356,9.88349 -6.41504,-0.0364 -12.83022,-0.0825 -19.24463,-0.18233 -0.84736,-0.2345 -1.84873,7.76473 -1.88615,10.30621 -1.87598,11.98886 6.31487,23.68534 17.35625,27.87481 12.15359,5.34964 25.60857,5.91924 38.5129,8.24337 -8.921,0.18549 -17.8392,0.72136 -26.76473,0.57313 z m -78.57924,-11.47014 c 8.15134,-2.29995 14.4395,-9.00789 16.82874,-17.06229 3.04887,-8.26417 5.79479,-17.26018 12.89544,-23.04366 3.37841,-3.35545 7.25375,-9.92414 12.74762,-6.78694 3.62156,1.76195 9.19752,2.46561 5.14311,-2.66477 -5.32646,-10.48602 -15.56497,-17.65903 -26.63011,-21.06299 -7.05549,5.24969 -12.36625,12.50306 -17.66472,19.43257 -8.26032,11.26498 -12.7291,25.07703 -13.03646,38.9994 -0.20433,5.61444 4.00195,11.67911 9.71638,12.18868 z"
       style="fill:#000000" />
  </g>
</svg>
