<?xml version="1.0" encoding="UTF-8" standalone="no"?>
<svg
   xmlns:dc="http://purl.org/dc/elements/1.1/"
   xmlns:cc="http://creativecommons.org/ns#"
   xmlns:rdf="http://www.w3.org/1999/02/22-rdf-syntax-ns#"
   xmlns:svg="http://www.w3.org/2000/svg"
   xmlns="http://www.w3.org/2000/svg"
   version="1.1"
   id="svg8161"
   viewBox="0 0 299.26298 454.91573"
   height="128.38733mm"
   width="84.458664mm">
  <defs
     id="defs8163" />
  <metadata
     id="metadata8166">
    <rdf:RDF>
      <cc:Work
         rdf:about="">
        <dc:format>image/svg+xml</dc:format>
        <dc:type
           rdf:resource="http://purl.org/dc/dcmitype/StillImage" />
        <dc:title></dc:title>
      </cc:Work>
    </rdf:RDF>
  </metadata>
  <g
     transform="translate(-106.48133,-119.75513)"
     id="layer1">
    <path
       id="path8215"
       d="m 183.13355,574.67082 c -20.46033,-2.96045 -18.65799,-28.58575 -16.52637,-43.95134 4.45098,-67.03427 19.44957,-133.33647 44.13993,-195.8116 -25.85017,14.77342 -51.70883,29.57093 -76.74057,45.61966 -8.17598,6.13864 -43.868851,5.04887 -18.64687,-2.78644 33.23139,-17.89271 66.77782,-35.20137 99.76342,-53.54895 23.791,-53.57742 50.17865,-106.184 80.76423,-156.23374 10.28976,-14.48336 18.07169,-31.73448 32.23831,-42.82771 21.57623,-11.94605 50.84216,-3.10876 63.43219,17.88237 12.56232,16.60064 21.22914,41.6051 6.32808,59.57216 -20.63211,26.53027 -49.64605,44.87764 -76.67889,64.28176 -30.51151,20.81931 -62.16432,39.89865 -94.0602,58.50454 -29.0242,70.7023 -45.9433,147.41231 -41.71063,224.09766 -3.89165,19.54626 20.49403,22.50898 34.32351,23.86078 -8.84664,2.08704 -24.97285,-0.58336 -36.62612,1.34088 l -2e-5,-3e-5 z m 50.8959,-261.18629 c 47.07949,-27.65748 94.19146,-57.01677 132.86646,-95.95698 12.39399,-13.2004 24.20815,-31.28663 16.89569,-49.99497 -6.58001,-15.76045 -15.40425,-34.15155 -32.09756,-40.73895 -10.71975,2.35321 -20.77825,14.51706 -27.28103,24.95109 -37.18853,50.42351 -67.23356,105.79648 -92.58788,162.99635 l 2.20428,-1.25654 4e-5,0 z"
       style="fill:#000000" />
  </g>
</svg>
