<?xml version="1.0" encoding="UTF-8" standalone="no"?>
<svg
   xmlns:dc="http://purl.org/dc/elements/1.1/"
   xmlns:cc="http://creativecommons.org/ns#"
   xmlns:rdf="http://www.w3.org/1999/02/22-rdf-syntax-ns#"
   xmlns:svg="http://www.w3.org/2000/svg"
   xmlns="http://www.w3.org/2000/svg"
   version="1.1"
   id="svg8260"
   viewBox="0 0 126.25884 67.24114"
   height="18.976944mm"
   width="35.633049mm">
  <defs
     id="defs8262" />
  <metadata
     id="metadata8265">
    <rdf:RDF>
      <cc:Work
         rdf:about="">
        <dc:format>image/svg+xml</dc:format>
        <dc:type
           rdf:resource="http://purl.org/dc/dcmitype/StillImage" />
        <dc:title></dc:title>
      </cc:Work>
    </rdf:RDF>
  </metadata>
  <g
     transform="translate(-433.86216,-558.14872)"
     id="layer1">
    <path
       id="path8314"
       d="m 489.64574,625.32429 c -14.31473,-0.12053 -29.96606,0.22342 -42.22035,-8.35417 -2.18687,-1.7555 -3.57117,-4.32196 -6.72374,-3.42508 -2.27983,-4.6e-4 -4.55966,-9.1e-4 -6.83949,-10e-4 0.19207,-5.10078 2.86892,-9.79399 6.57431,-13.19065 0.74935,-9.89908 2.46449,-21.02897 10.34058,-27.93648 14.44523,-11.27416 33.33171,-15.18282 51.34283,-14.09291 11.90616,0.52682 23.94231,0.25111 35.71215,2.33384 5.62933,1.34477 12.51324,3.46203 14.81148,9.34713 1.79108,5.36792 1.41013,11.92618 -1.96085,16.56961 -5.85834,4.57791 -13.77076,3.81658 -20.74057,4.8203 -20.3896,1.39323 -41.54397,-0.54056 -61.1234,6.45588 -2.2255,1.54797 -7.44157,2.03465 -6.66161,5.5811 -0.33027,7.68856 6.88078,12.75409 13.45236,14.88087 10.69199,3.74865 22.30147,4.32351 33.43685,2.49082 9.78094,-1.3881 19.62035,-3.2984 28.78981,-7.02649 5.29891,-0.92761 10.61638,0.91766 15.92875,1.12555 2.24256,0.52464 10.21479,0.21793 4.08409,2.12873 -10.4826,4.27862 -21.85477,5.61499 -32.95073,7.39897 -11.70716,1.26114 -23.50125,0.92968 -35.25247,0.89435 z m -25.19159,-34.1669 c 18.23009,-3.06774 36.84695,-1.36216 55.12456,-3.84652 4.51425,-0.7267 10.49996,-1.29589 11.90695,-6.56939 1.76091,-5.33608 0.50861,-12.54126 -5.3868,-14.69783 -7.48677,-2.85301 -15.65339,-3.81231 -23.62552,-3.79651 -12.23743,1.45939 -24.49393,6.2851 -33.35299,15.01048 -3.12401,4.12311 -5.14747,9.04279 -6.05111,14.12281 l 0.42468,-0.0655 0.96023,-0.15753 0,10e-6 z"
       style="fill:#000000" />
  </g>
</svg>
