<?xml version="1.0" encoding="UTF-8" standalone="no"?>
<svg
   xmlns:dc="http://purl.org/dc/elements/1.1/"
   xmlns:cc="http://creativecommons.org/ns#"
   xmlns:rdf="http://www.w3.org/1999/02/22-rdf-syntax-ns#"
   xmlns:svg="http://www.w3.org/2000/svg"
   xmlns="http://www.w3.org/2000/svg"
   version="1.1"
   id="svg8359"
   viewBox="0 0 97.608781 93.977149"
   height="26.52244mm"
   width="27.547367mm">
  <defs
     id="defs8361" />
  <metadata
     id="metadata8364">
    <rdf:RDF>
      <cc:Work
         rdf:about="">
        <dc:format>image/svg+xml</dc:format>
        <dc:type
           rdf:resource="http://purl.org/dc/dcmitype/StillImage" />
        <dc:title></dc:title>
      </cc:Work>
    </rdf:RDF>
  </metadata>
  <g
     transform="translate(-471.35661,-378.94706)"
     id="layer1">
    <path
       id="path8413"
       d="m 503.18128,472.87935 c -3.9063,-1.68448 -2.62424,-7.66756 -4.49465,-11.09446 -5.82196,-20.27105 -14.02059,-39.89017 -24.33737,-58.28122 -1.15208,-2.55792 -5.99401,-6.85998 -0.20754,-5.84287 6.10858,-0.3389 12.21633,-0.7659 18.32795,-1.00527 1.16268,2.49272 2.32884,4.98382 3.48781,7.47826 4.91958,-9.46107 15.09866,-14.11863 24.57829,-17.74423 8.95919,-3.35496 18.29283,-5.92209 27.71802,-7.4425 6.90405,0.97573 13.81082,1.9326 20.7116,2.9313 -15.36264,2.50836 -31.00763,6.13085 -44.3952,14.39126 -7.3737,5.02932 -11.94945,13.97811 -11.01396,22.94446 0.37097,16.07475 4.16855,31.86105 8.43461,47.27322 1.50499,4.7179 -6.81619,2.17039 -9.38872,4.072 -3.16122,0.64713 -6.09708,2.69203 -9.42084,2.32005 z"
       style="fill:#000000" />
  </g>
</svg>
