<?xml version="1.0" encoding="UTF-8" standalone="no"?>
<svg
   xmlns:dc="http://purl.org/dc/elements/1.1/"
   xmlns:cc="http://creativecommons.org/ns#"
   xmlns:rdf="http://www.w3.org/1999/02/22-rdf-syntax-ns#"
   xmlns:svg="http://www.w3.org/2000/svg"
   xmlns="http://www.w3.org/2000/svg"
   version="1.1"
   id="svg8458"
   viewBox="0 0 159.68518 76.188448"
   height="21.502073mm"
   width="45.066708mm">
  <defs
     id="defs8460" />
  <metadata
     id="metadata8463">
    <rdf:RDF>
      <cc:Work
         rdf:about="">
        <dc:format>image/svg+xml</dc:format>
        <dc:type
           rdf:resource="http://purl.org/dc/dcmitype/StillImage" />
        <dc:title></dc:title>
      </cc:Work>
    </rdf:RDF>
  </metadata>
  <g
     transform="translate(-464.98088,-821.37252)"
     id="layer1">
    <path
       id="path8512"
       d="m 492.94061,897.55267 c -6.82722,-0.50602 -14.11023,0.13819 -20.53518,-2.572 -6.64132,-3.17916 -8.88497,-11.39436 -6.49726,-18.04451 3.25113,-13.7185 12.6271,-24.73593 19.89105,-36.47169 10.23894,-14.00954 28.34588,-19.80213 45.16691,-19.02301 19.4908,0.11326 40.05277,-0.58367 57.99202,8.27879 3.90494,2.53276 10.29736,8.88567 9.64808,12.03195 -6.90278,0.34197 -13.80473,0.70088 -20.70733,1.04657 -2.46193,-1.69015 -4.69059,8.45889 -5.51684,11.36085 -1.42046,6.06156 -1.34704,14.28265 5.7253,16.69724 8.33654,3.05022 17.09965,4.84715 25.68337,7.07265 6.97122,0.94694 13.92877,2.00459 20.87534,3.11707 -16.45773,0.42448 -33.07969,0.70674 -49.26465,-2.81432 -4.99474,0.58665 -11.44146,-5.47739 -15.14186,-1.88251 -6.38171,6.11058 -12.29011,13.18422 -20.8153,16.36707 -14.32747,6.4985 -30.31904,4.30842 -45.54875,4.84415 l -0.9549,-0.008 0,0 z m 10.71691,-3.76117 c 12.57789,-1.22527 24.69622,-7.04544 32.87552,-16.79265 6.056,-5.55132 10.91326,-12.90471 11.20232,-21.34044 1.44946,-7.24577 4.02801,-15.01544 9.88151,-19.83871 3.5362,-3.59352 13.06646,-0.17003 14.07048,-1.34083 -7.53472,-6.27323 -17.83659,-7.27945 -27.15956,-8.84452 -8.29406,-1.73347 -16.66028,1.4177 -24.02831,4.99133 -9.02998,4.38045 -15.26741,12.47962 -20.37157,20.84532 -6.20762,9.66443 -13.37506,19.98258 -13.45662,31.88986 -0.23023,7.88814 8.4658,10.30756 14.83085,10.53154 0.7196,0.067 1.44156,-0.0189 2.15538,-0.1009 z"
       style="fill:#000000" />
  </g>
</svg>
