<?xml version="1.0" encoding="UTF-8" standalone="no"?>
<svg
   xmlns:dc="http://purl.org/dc/elements/1.1/"
   xmlns:cc="http://creativecommons.org/ns#"
   xmlns:rdf="http://www.w3.org/1999/02/22-rdf-syntax-ns#"
   xmlns:svg="http://www.w3.org/2000/svg"
   xmlns="http://www.w3.org/2000/svg"
   version="1.1"
   id="svg8557"
   viewBox="0 0 285.99586 147.00089"
   height="41.486919mm"
   width="80.714386mm">
  <defs
     id="defs8559" />
  <metadata
     id="metadata8562">
    <rdf:RDF>
      <cc:Work
         rdf:about="">
        <dc:format>image/svg+xml</dc:format>
        <dc:type
           rdf:resource="http://purl.org/dc/dcmitype/StillImage" />
        <dc:title></dc:title>
      </cc:Work>
    </rdf:RDF>
  </metadata>
  <g
     transform="translate(-331.99754,-291.31844)"
     id="layer1">
    <path
       id="path8611"
       d="m 594.01654,438.31934 c -13.59343,-0.51697 -24.72072,-9.55928 -36.84375,-14.73231 -24.81127,-12.52379 -49.52905,-25.70203 -75.73604,-34.99645 5.40184,-4.36254 21.62837,-5.12105 26.05317,-15.78539 7.83054,-11.32884 9.79693,-26.20447 8.0262,-39.6591 -1.5126,-13.51949 -15.29249,-19.45654 -26.23179,-24.2917 -9.77166,-1.08443 -22.96334,-15.38286 -30.42448,-5.54282 -0.66084,10.49924 2.84732,20.92352 3.52447,31.44262 2.93478,25.3802 4.9119,51.44121 0.23969,76.6819 -3.93373,11.85766 -17.10181,15.58265 -28.30375,16.19003 -24.46939,3.18331 -49.2186,2.82259 -73.82558,2.00221 23.01916,-4.93034 47.30024,-0.74603 69.96218,-7.77042 9.76866,-3.19787 14.11826,-13.3228 14.28931,-22.91847 3.59113,-29.38947 -0.78601,-59.15207 -6.82838,-87.91591 -1.64868,-10.11008 -9.71054,-15.35341 -18.71545,-8.87834 -22.08044,7.48161 -42.94306,18.42195 -62.44821,31.02891 -2.69478,8.19981 -9.94457,6.13105 -16.86901,6.25049 -12.1541,3.85798 -8.64626,-8.52231 -0.33566,-10.41904 24.55835,-14.50441 50.4807,-27.64284 78.27426,-34.57796 24.28495,-4.82795 50.13243,-4.65763 73.28962,4.98951 12.02544,4.76929 24.21293,9.51156 35.55654,15.69123 13.33434,10.36281 11.33192,29.40463 7.9371,43.96174 -3.25812,13.02399 -12.14671,26.12484 -25.91474,29.28489 30.71876,14.08228 60.65092,30.21507 91.4914,44.04385 4.28406,2.56453 20.65642,0.32697 17.37926,4.38158 -7.44457,2.65514 -15.77475,0.74603 -23.54636,1.53895 z"
       style="fill:#000000" />
  </g>
</svg>
